# xmcd CD Database Entry
#
# Track frame offsets:
# 150
# 20037
# 39605
# 46805
# 60107
# 69532
# 98837
# 100345
# 116780
# 170622
# 181112
# 219627
# 237432
# 248995
# 261985
# 284940
# 317537
#
# Disc length: 4530 seconds
#
# Revision: 2
# Processed by: cddbd v1.4PL0 Copyright (c) Steve Scherf et al.
# Submitted via: tcd 2.0b
#
DISCID=fc11b011
DTITLE=Wagner - Die Walk re (Querschnitt)
DYEAR=1900
DGENRE=
TTITLE0=Vorspiel
TTITLE1=Siegmund, Hunding, Sieglinde
TTITLE2=Siegmund
TTITLE3=Siegmund
TTITLE4=Sieglinde
TTITLE5=Siegmund, Sieglinde
TTITLE6=Siegmund, Sieglinde
TTITLE7=Siegmund, Sieglinde
TTITLE8=Br nnhilde, Siegmund
TTITLE9=Br nnhilde, Siegmund
TTITLE10=Die Walk ren
TTITLE11=Br nnhilde, Die Walk ren
TTITLE12=Br nnhilde, Wotan
TTITLE13=Br nnhilde, Wotan
TTITLE14=Wotan
TTITLE15=Wotan
TTITLE16=Wotan
EXTD=
EXTT0=
EXTT1=
EXTT2=
EXTT3=
EXTT4=
EXTT5=
EXTT6=
EXTT7=
EXTT8=
EXTT9=
EXTT10=
EXTT11=
EXTT12=
EXTT13=
EXTT14=
EXTT15=
EXTT16=
PLAYORDER=
